<svg width="4250" height="2533" xmlns="http://www.w3.org/2000/svg" xmlns:xlink="http://www.w3.org/1999/xlink" xml:space="preserve" overflow="hidden"><g transform="translate(-169 22)"><path d="M482.854 277.77 1431.28 277.77 1431.28 446.668 482.854 446.668Z" fill="#F2F2F2" fill-rule="evenodd"/><path d="M1431.28 277.77 2379.7 277.77 2379.7 446.668 1431.28 446.668Z" fill="#F2F2F2" fill-rule="evenodd"/><path d="M2379.7 277.77 3328.13 277.77 3328.13 446.668 2379.7 446.668Z" fill="#F2F2F2" fill-rule="evenodd"/><path d="M3328.13 277.77 4276.55 277.77 4276.55 446.668 3328.13 446.668Z" fill="#F2F2F2" fill-rule="evenodd"/><path d="M482.854 446.668 1431.28 446.668 1431.28 615.565 482.854 615.565Z" fill="#F2F2F2" fill-rule="evenodd"/><path d="M1431.28 446.668 2379.7 446.668 2379.7 615.565 1431.28 615.565Z" fill="#F2F2F2" fill-rule="evenodd"/><path d="M2379.7 446.668 3328.13 446.668 3328.13 615.565 2379.7 615.565Z" fill="#F2F2F2" fill-rule="evenodd"/><path d="M3328.13 446.668 4276.55 446.668 4276.55 615.565 3328.13 615.565Z" fill="#F2F2F2" fill-rule="evenodd"/><path d="M482.854 615.565 1431.28 615.565 1431.28 780.565 482.854 780.565Z" fill="#F2F2F2" fill-rule="evenodd"/><path d="M1431.28 615.565 2379.7 615.565 2379.7 780.565 1431.28 780.565Z" fill="#F2F2F2" fill-rule="evenodd"/><path d="M2379.7 615.565 3328.13 615.565 3328.13 780.565 2379.7 780.565Z" fill="#F2F2F2" fill-rule="evenodd"/><path d="M3328.13 615.565 4276.55 615.565 4276.55 780.565 3328.13 780.565Z" fill="#F2F2F2" fill-rule="evenodd"/><path d="M482.854 780.565 1431.28 780.565 1431.28 949.463 482.854 949.463Z" fill="#F2F2F2" fill-rule="evenodd"/><path d="M1431.28 780.565 2379.7 780.565 2379.7 949.463 1431.28 949.463Z" fill="#F2F2F2" fill-rule="evenodd"/><path d="M2379.7 780.565 3328.13 780.565 3328.13 949.463 2379.7 949.463Z" fill="#F2F2F2" fill-rule="evenodd"/><path d="M3328.13 780.565 4276.55 780.565 4276.55 949.463 3328.13 949.463Z" fill="#F2F2F2" fill-rule="evenodd"/><path d="M482.854 949.463 1431.28 949.463 1431.28 1118.36 482.854 1118.36Z" fill="#F2F2F2" fill-rule="evenodd"/><path d="M1431.28 949.463 2379.7 949.463 2379.7 1118.36 1431.28 1118.36Z" fill="#F2F2F2" fill-rule="evenodd"/><path d="M2379.7 949.463 3328.13 949.463 3328.13 1118.36 2379.7 1118.36Z" fill="#F2F2F2" fill-rule="evenodd"/><path d="M3328.13 949.463 4276.55 949.463 4276.55 1118.36 3328.13 1118.36Z" fill="#F2F2F2" fill-rule="evenodd"/><path d="M482.854 1118.36 1431.28 1118.36 1431.28 1287.26 482.854 1287.26Z" fill="#F2F2F2" fill-rule="evenodd"/><path d="M1431.28 1118.36 2379.7 1118.36 2379.7 1287.26 1431.28 1287.26Z" fill="#F2F2F2" fill-rule="evenodd"/><path d="M2379.7 1118.36 3328.13 1118.36 3328.13 1287.26 2379.7 1287.26Z" fill="#F2F2F2" fill-rule="evenodd"/><path d="M3328.13 1118.36 4276.55 1118.36 4276.55 1287.26 3328.13 1287.26Z" fill="#F2F2F2" fill-rule="evenodd"/><path d="M482.854 1287.26 1431.28 1287.26 1431.28 1456.16 482.854 1456.16Z" fill="#F2F2F2" fill-rule="evenodd"/><path d="M1431.28 1287.26 2379.7 1287.26 2379.7 1456.16 1431.28 1456.16Z" fill="#F2F2F2" fill-rule="evenodd"/><path d="M2379.7 1287.26 3328.13 1287.26 3328.13 1456.16 2379.7 1456.16Z" fill="#F2F2F2" fill-rule="evenodd"/><path d="M3328.13 1287.26 4276.55 1287.26 4276.55 1456.16 3328.13 1456.16Z" fill="#F2F2F2" fill-rule="evenodd"/><path d="M482.854 1456.16 1431.28 1456.16 1431.28 1625.05 482.854 1625.05Z" fill="#F2F2F2" fill-rule="evenodd"/><path d="M1431.28 1456.16 2379.7 1456.16 2379.7 1625.05 1431.28 1625.05Z" fill="#F2F2F2" fill-rule="evenodd"/><path d="M2379.7 1456.16 3328.13 1456.16 3328.13 1625.05 2379.7 1625.05Z" fill="#F2F2F2" fill-rule="evenodd"/><path d="M3328.13 1456.16 4276.55 1456.16 4276.55 1625.05 3328.13 1625.05Z" fill="#F2F2F2" fill-rule="evenodd"/><path d="M482.854 1625.05 1431.28 1625.05 1431.28 1793.95 482.854 1793.95Z" fill="#F2F2F2" fill-rule="evenodd"/><path d="M1431.28 1625.05 2379.7 1625.05 2379.7 1793.95 1431.28 1793.95Z" fill="#F2F2F2" fill-rule="evenodd"/><path d="M2379.7 1625.05 3328.13 1625.05 3328.13 2300.64 2379.7 2300.64Z" fill="#F2F2F2" fill-rule="evenodd"/><path d="M3328.13 1625.05 4276.55 1625.05 4276.55 1793.95 3328.13 1793.95Z" fill="#F2F2F2" fill-rule="evenodd"/><path d="M482.854 1793.95 1431.28 1793.95 1431.28 1962.85 482.854 1962.85Z" fill="#F2F2F2" fill-rule="evenodd"/><path d="M1431.28 1793.95 2379.7 1793.95 2379.7 2300.64 1431.28 2300.64Z" fill="#F2F2F2" fill-rule="evenodd"/><path d="M3328.13 1793.95 4276.55 1793.95 4276.55 1962.85 3328.13 1962.85Z" fill="#F2F2F2" fill-rule="evenodd"/><path d="M482.854 1962.85 1431.28 1962.85 1431.28 2131.75 482.854 2131.75Z" fill="#F2F2F2" fill-rule="evenodd"/><path d="M3328.13 1962.85 4276.55 1962.85 4276.55 2131.75 3328.13 2131.75Z" fill="#F2F2F2" fill-rule="evenodd"/><path d="M482.854 2131.75 1431.28 2131.75 1431.28 2300.64 482.854 2300.64Z" fill="#F2F2F2" fill-rule="evenodd"/><path d="M3328.13 2131.75 4276.55 2131.75 4276.55 2300.64 3328.13 2300.64Z" fill="#F2F2F2" fill-rule="evenodd"/><path d="M1431.28 275.479 1431.28 2300.64" stroke="#FFFFFF" stroke-width="10.3125" stroke-linejoin="round" stroke-miterlimit="10" fill="none" fill-rule="evenodd"/><path d="M2379.7 275.479 2379.7 2300.64" stroke="#FFFFFF" stroke-width="10.3125" stroke-linejoin="round" stroke-miterlimit="10" fill="none" fill-rule="evenodd"/><path d="M3328.13 275.479 3328.13 2300.64" stroke="#FFFFFF" stroke-width="10.3125" stroke-linejoin="round" stroke-miterlimit="10" fill="none" fill-rule="evenodd"/><path d="M480.562 446.668 4278.85 446.668" stroke="#A6A6A6" stroke-width="4.58333" stroke-linecap="square" stroke-linejoin="round" stroke-miterlimit="10" stroke-dasharray="13.75 4.58333" fill="none" fill-rule="evenodd"/><path d="M480.562 615.565 4278.85 615.565" stroke="#A6A6A6" stroke-width="4.58333" stroke-linecap="square" stroke-linejoin="round" stroke-miterlimit="10" stroke-dasharray="13.75 4.58333" fill="none" fill-rule="evenodd"/><path d="M480.562 780.565 4278.85 780.565" stroke="#A6A6A6" stroke-width="4.58333" stroke-linecap="square" stroke-linejoin="round" stroke-miterlimit="10" stroke-dasharray="13.75 4.58333" fill="none" fill-rule="evenodd"/><path d="M480.562 1118.36 4278.85 1118.36" stroke="#A6A6A6" stroke-width="4.58333" stroke-linecap="square" stroke-linejoin="round" stroke-miterlimit="10" stroke-dasharray="13.75 4.58333" fill="none" fill-rule="evenodd"/><path d="M480.562 1287.26 4278.85 1287.26" stroke="#A6A6A6" stroke-width="4.58333" stroke-linecap="square" stroke-linejoin="round" stroke-miterlimit="10" stroke-dasharray="13.75 4.58333" fill="none" fill-rule="evenodd"/><path d="M480.562 1625.05 4278.85 1625.05" stroke="#A6A6A6" stroke-width="4.58333" stroke-linecap="square" stroke-linejoin="round" stroke-miterlimit="10" stroke-dasharray="13.75 4.58333" fill="none" fill-rule="evenodd"/><path d="M480.562 1793.95 2384.86 1793.95" stroke="#A6A6A6" stroke-width="4.58333" stroke-linecap="square" stroke-linejoin="round" stroke-miterlimit="10" stroke-dasharray="13.75 4.58333" fill="none" fill-rule="evenodd"/><path d="M3322.97 1793.95 4278.85 1793.95" stroke="#A6A6A6" stroke-width="4.58333" stroke-linecap="square" stroke-linejoin="round" stroke-miterlimit="10" stroke-dasharray="13.75 4.58333" fill="none" fill-rule="evenodd"/><path d="M480.562 1962.85 1436.44 1962.85" stroke="#A6A6A6" stroke-width="4.58333" stroke-linecap="square" stroke-linejoin="round" stroke-miterlimit="10" stroke-dasharray="13.75 4.58333" fill="none" fill-rule="evenodd"/><path d="M482.854 2131.75 1436.44 2131.75" stroke="#A6A6A6" stroke-width="4.58333" stroke-linecap="square" stroke-linejoin="round" stroke-miterlimit="10" stroke-dasharray="13.75 4.58333" fill="none" fill-rule="evenodd"/><path d="M482.854 275.479 482.854 782.857" stroke="#FFFFFF" stroke-width="4.58333" stroke-linejoin="round" stroke-miterlimit="10" fill="none" fill-rule="evenodd"/><path d="M482.854 949.463 482.854 1289.55" stroke="#FFFFFF" stroke-width="4.58333" stroke-linejoin="round" stroke-miterlimit="10" fill="none" fill-rule="evenodd"/><path d="M482.854 1456.16 482.854 1965.14" stroke="#FFFFFF" stroke-width="4.58333" stroke-linejoin="round" stroke-miterlimit="10" fill="none" fill-rule="evenodd"/><path d="M4276.55 275.479 4276.55 2300.64" stroke="#FFFFFF" stroke-width="4.58333" stroke-linejoin="round" stroke-miterlimit="10" fill="none" fill-rule="evenodd"/><path d="M480.562 277.77 4278.85 277.77" stroke="#FFFFFF" stroke-width="4.58333" stroke-linejoin="round" stroke-miterlimit="10" fill="none" fill-rule="evenodd"/><text font-family="Times New Roman,Times New Roman_MSFontService,sans-serif" font-weight="400" font-size="55" transform="matrix(1 0 0 1 3361.13 349)">Streamline ML Retraining </text><text font-family="Times New Roman,Times New Roman_MSFontService,sans-serif" font-weight="400" font-size="55" transform="matrix(1 0 0 1 3361.13 415)">Frequency </text><text font-family="Times New Roman,Times New Roman_MSFontService,sans-serif" font-weight="400" font-size="37" transform="matrix(1 0 0 1 3607.48 398)">B, S</text><text font-family="Times New Roman,Times New Roman_MSFontService,sans-serif" font-weight="400" font-size="55" transform="matrix(1 0 0 1 2412.7 349)">Preselect Energy</text><text font-family="Times New Roman,Times New Roman_MSFontService,sans-serif" font-weight="400" font-size="55" transform="matrix(1 0 0 1 2784.11 349)">-</text><text font-family="Times New Roman,Times New Roman_MSFontService,sans-serif" font-weight="400" font-size="55" transform="matrix(1 0 0 1 2802.45 349)">Efficient </text><text font-family="Times New Roman,Times New Roman_MSFontService,sans-serif" font-weight="400" font-size="55" transform="matrix(1 0 0 1 2412.7 415)">ML</text><text font-family="Times New Roman,Times New Roman_MSFontService,sans-serif" font-weight="400" font-size="55" transform="matrix(1 0 0 1 2495.2 415)">-</text><text font-family="Times New Roman,Times New Roman_MSFontService,sans-serif" font-weight="400" font-size="55" transform="matrix(1 0 0 1 2513.54 415)">Models </text><text font-family="Times New Roman,Times New Roman_MSFontService,sans-serif" font-weight="400" font-size="37" transform="matrix(1 0 0 1 2692.29 398)">M, S</text><text font-family="Times New Roman,Times New Roman_MSFontService,sans-serif" font-weight="400" font-size="55" transform="matrix(1 0 0 1 1464.28 349)">Promote Data Sparseness in Data </text><text font-family="Times New Roman,Times New Roman_MSFontService,sans-serif" font-weight="400" font-size="55" transform="matrix(1 0 0 1 1464.28 415)">Collection </text><text font-family="Times New Roman,Times New Roman_MSFontService,sans-serif" font-weight="400" font-size="37" transform="matrix(1 0 0 1 1708.34 398)">B, D, M</text><text font-family="Times New Roman,Times New Roman_MSFontService,sans-serif" font-weight="400" font-size="55" transform="matrix(1 0 0 1 515.854 349)">Assess Performance</text><text font-family="Times New Roman,Times New Roman_MSFontService,sans-serif" font-weight="400" font-size="55" transform="matrix(1 0 0 1 960.437 349)">-</text><text font-family="Times New Roman,Times New Roman_MSFontService,sans-serif" font-weight="400" font-size="55" transform="matrix(1 0 0 1 978.77 349)">Efficiency </text><text font-family="Times New Roman,Times New Roman_MSFontService,sans-serif" font-weight="400" font-size="55" transform="matrix(1 0 0 1 515.854 415)">Tradeoff </text><text font-family="Times New Roman,Times New Roman_MSFontService,sans-serif" font-weight="400" font-size="37" transform="matrix(1 0 0 1 719.766 398)">B, M, D</text><text font-family="Times New Roman,Times New Roman_MSFontService,sans-serif" font-weight="400" font-size="55" transform="matrix(1 0 0 1 3361.13 518)">Design Computationally Sparse ML </text><text font-family="Times New Roman,Times New Roman_MSFontService,sans-serif" font-weight="400" font-size="55" transform="matrix(1 0 0 1 3361.13 584)">Architecture </text><text font-family="Times New Roman,Times New Roman_MSFontService,sans-serif" font-weight="400" font-size="37" transform="matrix(1 0 0 1 3651.03 567)">S</text><text font-family="Times New Roman,Times New Roman_MSFontService,sans-serif" font-weight="400" font-size="55" transform="matrix(1 0 0 1 2412.7 518)">Eliminate Inefficiency in ML</text><text font-family="Times New Roman,Times New Roman_MSFontService,sans-serif" font-weight="400" font-size="55" transform="matrix(1 0 0 1 3060.83 518)">-</text><text font-family="Times New Roman,Times New Roman_MSFontService,sans-serif" font-weight="400" font-size="55" transform="matrix(1 0 0 1 3079.17 518)">Model </text><text font-family="Times New Roman,Times New Roman_MSFontService,sans-serif" font-weight="400" font-size="55" transform="matrix(1 0 0 1 2412.7 584)">Architecture </text><text font-family="Times New Roman,Times New Roman_MSFontService,sans-serif" font-weight="400" font-size="37" transform="matrix(1 0 0 1 2702.6 567)">M</text><text font-family="Times New Roman,Times New Roman_MSFontService,sans-serif" font-weight="400" font-size="55" transform="matrix(1 0 0 1 1464.28 551)">Reduce Data Dimensionality </text><text font-family="Times New Roman,Times New Roman_MSFontService,sans-serif" font-weight="400" font-size="37" transform="matrix(1 0 0 1 2115.69 534)">D, M</text><text font-family="Times New Roman,Times New Roman_MSFontService,sans-serif" font-weight="400" font-size="55" transform="matrix(1 0 0 1 515.854 518)">Decide on Environmental </text><text font-family="Times New Roman,Times New Roman_MSFontService,sans-serif" font-weight="400" font-size="55" transform="matrix(1 0 0 1 515.854 584)">Infrastructure </text><text font-family="Times New Roman,Times New Roman_MSFontService,sans-serif" font-weight="400" font-size="37" transform="matrix(1 0 0 1 829.812 567)">B, S</text><text font-family="Times New Roman,Times New Roman_MSFontService,sans-serif" font-weight="400" font-size="55" transform="matrix(1 0 0 1 3361.13 685)">Report and Monitor Environmental </text><text font-family="Times New Roman,Times New Roman_MSFontService,sans-serif" font-weight="400" font-size="55" transform="matrix(1 0 0 1 3361.13 751)">Sustainability</text><text font-family="Times New Roman,Times New Roman_MSFontService,sans-serif" font-weight="400" font-size="37" transform="matrix(1 0 0 1 3678.53 734)">B, M</text><text font-family="Times New Roman,Times New Roman_MSFontService,sans-serif" font-weight="400" font-size="55" transform="matrix(1 0 0 1 2412.7 685)">Streamline ML</text><text font-family="Times New Roman,Times New Roman_MSFontService,sans-serif" font-weight="400" font-size="55" transform="matrix(1 0 0 1 2748.43 685)">-</text><text font-family="Times New Roman,Times New Roman_MSFontService,sans-serif" font-weight="400" font-size="55" transform="matrix(1 0 0 1 2766.77 685)">Model Training </text><text font-family="Times New Roman,Times New Roman_MSFontService,sans-serif" font-weight="400" font-size="55" transform="matrix(1 0 0 1 2412.7 751)">Process </text><text font-family="Times New Roman,Times New Roman_MSFontService,sans-serif" font-weight="400" font-size="37" transform="matrix(1 0 0 1 2594.32 734)">M, S</text><text font-family="Times New Roman,Times New Roman_MSFontService,sans-serif" font-weight="400" font-size="55" transform="matrix(1 0 0 1 1464.28 718)">Compress Data Storage </text><text font-family="Times New Roman,Times New Roman_MSFontService,sans-serif" font-weight="400" font-size="37" transform="matrix(1 0 0 1 1998.24 701)">M, S</text><text font-family="Times New Roman,Times New Roman_MSFontService,sans-serif" font-weight="400" font-size="55" transform="matrix(1 0 0 1 515.854 685)">Evaluate ML</text><text font-family="Times New Roman,Times New Roman_MSFontService,sans-serif" font-weight="400" font-size="55" transform="matrix(1 0 0 1 805.75 685)">-</text><text font-family="Times New Roman,Times New Roman_MSFontService,sans-serif" font-weight="400" font-size="55" transform="matrix(1 0 0 1 824.083 685)">Model</text><text font-family="Times New Roman,Times New Roman_MSFontService,sans-serif" font-weight="400" font-size="55" transform="matrix(1 0 0 1 967.885 685)">-</text><text font-family="Times New Roman,Times New Roman_MSFontService,sans-serif" font-weight="400" font-size="55" transform="matrix(1 0 0 1 986.218 685)">Hardware</text><text font-family="Times New Roman,Times New Roman_MSFontService,sans-serif" font-weight="400" font-size="55" transform="matrix(1 0 0 1 1203.35 685)">-</text><text font-family="Times New Roman,Times New Roman_MSFontService,sans-serif" font-weight="400" font-size="55" transform="matrix(1 0 0 1 515.854 751)">Fit </text><text font-family="Times New Roman,Times New Roman_MSFontService,sans-serif" font-weight="400" font-size="37" transform="matrix(1 0 0 1 590.906 734)">B, M, S</text><text font-family="Times New Roman,Times New Roman_MSFontService,sans-serif" font-weight="400" font-size="55" transform="matrix(1 0 0 1 2412.7 885)">Optimize Hyperparameter Efficiently </text><text font-family="Times New Roman,Times New Roman_MSFontService,sans-serif" font-weight="400" font-size="37" transform="matrix(1 0 0 1 3253.91 868)">M</text><text font-family="Times New Roman,Times New Roman_MSFontService,sans-serif" font-weight="400" font-size="55" transform="matrix(1 0 0 1 1464.28 885)">Stage Preprocessed Data </text><text font-family="Times New Roman,Times New Roman_MSFontService,sans-serif" font-weight="400" font-size="37" transform="matrix(1 0 0 1 2022.87 868)">M, S</text><text font-family="Times New Roman,Times New Roman_MSFontService,sans-serif" font-weight="400" font-size="55" transform="matrix(1 0 0 1 3361.13 1021)">Ensure Continuous (Human) </text><text font-family="Times New Roman,Times New Roman_MSFontService,sans-serif" font-weight="400" font-size="55" transform="matrix(1 0 0 1 3361.13 1087)">Monitoring for Fairness</text><text font-family="Times New Roman,Times New Roman_MSFontService,sans-serif" font-weight="400" font-size="37" transform="matrix(1 0 0 1 3896.23 1070)">B, S, AT</text><text font-family="Times New Roman,Times New Roman_MSFontService,sans-serif" font-weight="400" font-size="55" transform="matrix(1 0 0 1 2412.7 1021)">Leverage Interpretable and Fair </text><text font-family="Times New Roman,Times New Roman_MSFontService,sans-serif" font-weight="400" font-size="55" transform="matrix(1 0 0 1 2412.7 1087)">Models</text><text font-family="Times New Roman,Times New Roman_MSFontService,sans-serif" font-weight="400" font-size="37" transform="matrix(1 0 0 1 2586.87 1070)">B, M, AT</text><text font-family="Times New Roman,Times New Roman_MSFontService,sans-serif" font-weight="400" font-size="55" transform="matrix(1 0 0 1 1464.28 1021)">Foster Accurate and Fair Data </text><text font-family="Times New Roman,Times New Roman_MSFontService,sans-serif" font-weight="400" font-size="55" transform="matrix(1 0 0 1 1464.28 1087)">Collection </text><text font-family="Times New Roman,Times New Roman_MSFontService,sans-serif" font-weight="400" font-size="37" transform="matrix(1 0 0 1 1708.34 1070)">D, M, AT</text><text font-family="Times New Roman,Times New Roman_MSFontService,sans-serif" font-weight="400" font-size="55" transform="matrix(1 0 0 1 515.854 1054)">Assess Social Implications</text><text font-family="Times New Roman,Times New Roman_MSFontService,sans-serif" font-weight="400" font-size="37" transform="matrix(1 0 0 1 1115.7 1037)">B, D</text><text font-family="Times New Roman,Times New Roman_MSFontService,sans-serif" font-weight="400" font-size="55" transform="matrix(1 0 0 1 3361.13 1190)">Convey ML</text><text font-family="Times New Roman,Times New Roman_MSFontService,sans-serif" font-weight="400" font-size="55" transform="matrix(1 0 0 1 3628.68 1190)">-</text><text font-family="Times New Roman,Times New Roman_MSFontService,sans-serif" font-weight="400" font-size="55" transform="matrix(1 0 0 1 3647.01 1190)">Model Understanding to </text><text font-family="Times New Roman,Times New Roman_MSFontService,sans-serif" font-weight="400" font-size="55" transform="matrix(1 0 0 1 3361.13 1256)">End Users</text><text font-family="Times New Roman,Times New Roman_MSFontService,sans-serif" font-weight="400" font-size="37" transform="matrix(1 0 0 1 3597.74 1239)">B, M</text><text font-family="Times New Roman,Times New Roman_MSFontService,sans-serif" font-weight="400" font-size="55" transform="matrix(1 0 0 1 2412.7 1223)">Conduct Fairness Evaluation</text><text font-family="Times New Roman,Times New Roman_MSFontService,sans-serif" font-weight="400" font-size="37" transform="matrix(1 0 0 1 3058.95 1206)">B, D, M, AT</text><text font-family="Times New Roman,Times New Roman_MSFontService,sans-serif" font-weight="400" font-size="55" transform="matrix(1 0 0 1 1464.28 1190)">Understand and Establish Fairness in </text><text font-family="Times New Roman,Times New Roman_MSFontService,sans-serif" font-weight="400" font-size="55" transform="matrix(1 0 0 1 1464.28 1256)">Dataset </text><text font-family="Times New Roman,Times New Roman_MSFontService,sans-serif" font-weight="400" font-size="37" transform="matrix(1 0 0 1 1643.6 1239)">D, M, AT</text><text font-family="Times New Roman,Times New Roman_MSFontService,sans-serif" font-weight="400" font-size="55" transform="matrix(1 0 0 1 515.854 1190)">Conceptualize Definition of </text><text font-family="Times New Roman,Times New Roman_MSFontService,sans-serif" font-weight="400" font-size="55" transform="matrix(1 0 0 1 515.854 1256)">Fairness </text><text font-family="Times New Roman,Times New Roman_MSFontService,sans-serif" font-weight="400" font-size="37" transform="matrix(1 0 0 1 712.937 1239)">B, D, AT</text><text font-family="Times New Roman,Times New Roman_MSFontService,sans-serif" font-weight="400" font-size="55" transform="matrix(1 0 0 1 3361.13 1359)">Enhance Transparency through </text><text font-family="Times New Roman,Times New Roman_MSFontService,sans-serif" font-weight="400" font-size="55" transform="matrix(1 0 0 1 3361.13 1425)">Fairness Metrics </text><text font-family="Times New Roman,Times New Roman_MSFontService,sans-serif" font-weight="400" font-size="37" transform="matrix(1 0 0 1 3740.4 1408)">B, M, AT</text><text font-family="Times New Roman,Times New Roman_MSFontService,sans-serif" font-weight="400" font-size="55" transform="matrix(1 0 0 1 2412.7 1392)">Adjust Model Parameters for Fairness</text><text font-family="Times New Roman,Times New Roman_MSFontService,sans-serif" font-weight="400" font-size="37" transform="matrix(1 0 0 1 3260.05 1375)">M</text><text font-family="Times New Roman,Times New Roman_MSFontService,sans-serif" font-weight="400" font-size="55" transform="matrix(1 0 0 1 1464.28 1392)">Leverage Fair Data Sampling </text><text font-family="Times New Roman,Times New Roman_MSFontService,sans-serif" font-weight="400" font-size="37" transform="matrix(1 0 0 1 2129.44 1375)">D, M </text><text font-family="Times New Roman,Times New Roman_MSFontService,sans-serif" font-weight="400" font-size="55" transform="matrix(1 0 0 1 515.854 1359)">Define Human Role in Decision </text><text font-family="Times New Roman,Times New Roman_MSFontService,sans-serif" font-weight="400" font-size="55" transform="matrix(1 0 0 1 515.854 1425)">Process </text><text font-family="Times New Roman,Times New Roman_MSFontService,sans-serif" font-weight="400" font-size="37" transform="matrix(1 0 0 1 697.468 1408)">B, D</text><text font-family="Times New Roman,Times New Roman_MSFontService,sans-serif" font-weight="400" font-size="55" transform="matrix(1 0 0 1 3361.13 1528)">Ensure Documentation and </text><text font-family="Times New Roman,Times New Roman_MSFontService,sans-serif" font-weight="400" font-size="55" transform="matrix(1 0 0 1 3361.13 1594)">Publishing </text><text font-family="Times New Roman,Times New Roman_MSFontService,sans-serif" font-weight="400" font-size="37" transform="matrix(1 0 0 1 3610.35 1577)">B, M, S, AT</text><text font-family="Times New Roman,Times New Roman_MSFontService,sans-serif" font-weight="400" font-size="55" transform="matrix(1 0 0 1 2412.7 1528)">Introduce ML</text><text font-family="Times New Roman,Times New Roman_MSFontService,sans-serif" font-weight="400" font-size="55" transform="matrix(1 0 0 1 2720.36 1528)">-</text><text font-family="Times New Roman,Times New Roman_MSFontService,sans-serif" font-weight="400" font-size="55" transform="matrix(1 0 0 1 2738.69 1528)">Model Transparency for </text><text font-family="Times New Roman,Times New Roman_MSFontService,sans-serif" font-weight="400" font-size="55" transform="matrix(1 0 0 1 2412.7 1594)">Active Participation</text><text font-family="Times New Roman,Times New Roman_MSFontService,sans-serif" font-weight="400" font-size="37" transform="matrix(1 0 0 1 2865.31 1577)">M, AT</text><text font-family="Times New Roman,Times New Roman_MSFontService,sans-serif" font-weight="400" font-size="55" transform="matrix(1 0 0 1 1464.28 1528)">Establish Standards in Data Collection </text><text font-family="Times New Roman,Times New Roman_MSFontService,sans-serif" font-weight="400" font-size="55" transform="matrix(1 0 0 1 1464.28 1594)">and Preparation</text><text font-family="Times New Roman,Times New Roman_MSFontService,sans-serif" font-weight="400" font-size="37" transform="matrix(1 0 0 1 1821.21 1577)">B, M, AT</text><text font-family="Times New Roman,Times New Roman_MSFontService,sans-serif" font-weight="400" font-size="55" transform="matrix(1 0 0 1 515.854 1528)">Comply with Legal Frameworks and </text><text font-family="Times New Roman,Times New Roman_MSFontService,sans-serif" font-weight="400" font-size="55" transform="matrix(1 0 0 1 515.854 1594)">Company Policies</text><text font-family="Times New Roman,Times New Roman_MSFontService,sans-serif" font-weight="400" font-size="37" transform="matrix(1 0 0 1 927.781 1577)">B, D, AT</text><text font-family="Times New Roman,Times New Roman_MSFontService,sans-serif" font-weight="400" font-size="55" transform="matrix(1 0 0 1 3361.13 1730)">Engage in ML</text><text font-family="Times New Roman,Times New Roman_MSFontService,sans-serif" font-weight="400" font-size="55" transform="matrix(1 0 0 1 3679.67 1730)">-</text><text font-family="Times New Roman,Times New Roman_MSFontService,sans-serif" font-weight="400" font-size="55" transform="matrix(1 0 0 1 3698 1730)">Model Auditing </text><text font-family="Times New Roman,Times New Roman_MSFontService,sans-serif" font-weight="400" font-size="37" transform="matrix(1 0 0 1 4062.22 1713)">B, AT</text><text font-family="Times New Roman,Times New Roman_MSFontService,sans-serif" font-weight="400" font-size="55" transform="matrix(1 0 0 1 1464.28 1697)">Initiate Intra</text><text font-family="Times New Roman,Times New Roman_MSFontService,sans-serif" font-weight="400" font-size="55" transform="matrix(1 0 0 1 1739.28 1697)">-</text><text font-family="Times New Roman,Times New Roman_MSFontService,sans-serif" font-weight="400" font-size="55" transform="matrix(1 0 0 1 1771.36 1697)">and Interorganizational </text><text font-family="Times New Roman,Times New Roman_MSFontService,sans-serif" font-weight="400" font-size="55" transform="matrix(1 0 0 1 1464.28 1763)">Data Democratization</text><text font-family="Times New Roman,Times New Roman_MSFontService,sans-serif" font-weight="400" font-size="37" transform="matrix(1 0 0 1 1959.85 1746)">B</text><text font-family="Times New Roman,Times New Roman_MSFontService,sans-serif" font-weight="400" font-size="55" transform="matrix(1 0 0 1 515.854 1697)">Compose Diverse and Interdisciplinary </text><text font-family="Times New Roman,Times New Roman_MSFontService,sans-serif" font-weight="400" font-size="55" transform="matrix(1 0 0 1 515.854 1763)">ML</text><text font-family="Times New Roman,Times New Roman_MSFontService,sans-serif" font-weight="400" font-size="55" transform="matrix(1 0 0 1 598.354 1763)">-</text><text font-family="Times New Roman,Times New Roman_MSFontService,sans-serif" font-weight="400" font-size="55" transform="matrix(1 0 0 1 616.687 1763)">Team</text><text font-family="Times New Roman,Times New Roman_MSFontService,sans-serif" font-weight="400" font-size="37" transform="matrix(1 0 0 1 748.045 1746)">B</text><text font-family="Times New Roman,Times New Roman_MSFontService,sans-serif" font-weight="400" font-size="55" transform="matrix(1 0 0 1 515.854 1865)">Establish a Responsible </text><text font-family="Times New Roman,Times New Roman_MSFontService,sans-serif" font-weight="400" font-size="55" transform="matrix(1 0 0 1 515.854 1931)">ML</text><text font-family="Times New Roman,Times New Roman_MSFontService,sans-serif" font-weight="400" font-size="55" transform="matrix(1 0 0 1 598.354 1931)">-</text><text font-family="Times New Roman,Times New Roman_MSFontService,sans-serif" font-weight="400" font-size="55" transform="matrix(1 0 0 1 616.687 1931)">Mindset</text><text font-family="Times New Roman,Times New Roman_MSFontService,sans-serif" font-weight="400" font-size="37" transform="matrix(1 0 0 1 806.323 1914)">B</text><text font-family="Times New Roman,Times New Roman_MSFontService,sans-serif" font-weight="400" font-size="55" transform="matrix(1 0 0 1 515.854 2067)">Promote ML Democratization </text><text font-family="Times New Roman,Times New Roman_MSFontService,sans-serif" font-weight="400" font-size="37" transform="matrix(1 0 0 1 1192.72 2050)">B, M</text><path d="M302.5 1461.5 4278.09 1461.5" stroke="#7F7F7F" stroke-width="6.875" stroke-miterlimit="8" stroke-dasharray="27.5 20.625" fill="none" fill-rule="evenodd"/><path d="M302.5 944.5 4278.09 944.5" stroke="#7F7F7F" stroke-width="6.875" stroke-miterlimit="8" stroke-dasharray="27.5 20.625" fill="none" fill-rule="evenodd"/><rect x="573.5" y="98.5002" width="756" height="153" stroke="#000000" stroke-width="4.58333" stroke-miterlimit="8" fill="#D9D9D9"/><text font-family="Times New Roman,Times New Roman_MSFontService,sans-serif" font-weight="700" font-size="55" transform="matrix(1 0 0 1 643.575 194)">ML Demand Specification</text><rect x="1522.5" y="98.5002" width="756" height="153" stroke="#000000" stroke-width="4.58333" stroke-miterlimit="8" fill="#D9D9D9"/><text font-family="Times New Roman,Times New Roman_MSFontService,sans-serif" font-weight="700" font-size="55" transform="matrix(1 0 0 1 1717.32 161)">Data Collection </text><text font-family="Times New Roman,Times New Roman_MSFontService,sans-serif" font-weight="700" font-size="55" transform="matrix(1 0 0 1 1707.22 227)">and Preparation</text><rect x="2471.5" y="98.5002" width="756" height="153" stroke="#000000" stroke-width="4.58333" stroke-miterlimit="8" fill="#D9D9D9"/><text font-family="Times New Roman,Times New Roman_MSFontService,sans-serif" font-weight="700" font-size="55" transform="matrix(1 0 0 1 2737.58 161)">Modeling </text><text font-family="Times New Roman,Times New Roman_MSFontService,sans-serif" font-weight="700" font-size="55" transform="matrix(1 0 0 1 2696.86 227)">and Training</text><rect x="3421.5" y="98.5002" width="756" height="153" stroke="#000000" stroke-width="4.58333" stroke-miterlimit="8" fill="#D9D9D9"/><text font-family="Times New Roman,Times New Roman_MSFontService,sans-serif" font-weight="700" font-size="55" transform="matrix(1 0 0 1 3656.44 161)">Deployment </text><text font-family="Times New Roman,Times New Roman_MSFontService,sans-serif" font-weight="700" font-size="55" transform="matrix(1 0 0 1 3612.9 227)">and Monitoring</text><rect x="302.5" y="278.5" width="153" height="643" stroke="#000000" stroke-width="4.58333" stroke-miterlimit="8" fill="#D9D9D9"/><text font-family="Times New Roman,Times New Roman_MSFontService,sans-serif" font-weight="700" font-size="55" transform="matrix(-1.83697e-16 -1 1 -1.83697e-16 398.799 776)">Environmental</text><rect x="302.5" y="970.5" width="153" height="469" stroke="#000000" stroke-width="4.58333" stroke-miterlimit="8" fill="#D9D9D9"/><text font-family="Times New Roman,Times New Roman_MSFontService,sans-serif" font-weight="700" font-size="55" transform="matrix(-1.83697e-16 -1 1 -1.83697e-16 398.801 1275)">Social</text><rect x="302.5" y="1480.5" width="153" height="821" stroke="#000000" stroke-width="4.58333" stroke-miterlimit="8" fill="#D9D9D9"/><text font-family="Times New Roman,Times New Roman_MSFontService,sans-serif" font-weight="700" font-size="55" transform="matrix(-1.83697e-16 -1 1 -1.83697e-16 398.799 2033)">Governance</text><path d="M2356 127 2393 173.5 2356 220Z" fill="#A6A6A6" fill-rule="evenodd"/><path d="M3305 127 3342 173.5 3305 220Z" fill="#A6A6A6" fill-rule="evenodd"/><text font-family="Times New Roman,Times New Roman_MSFontService,sans-serif" font-style="italic" font-weight="400" font-size="55" transform="matrix(-1.83697e-16 -1 1 -1.83697e-16 248.556 1553)">Sustainable Dimensions</text><path d="M227.209 979.106 227.209 960.772 231.792 960.772 231.792 979.106ZM227.209 947.022 227.209 928.689 231.792 928.689 231.792 947.022ZM227.209 914.939 227.209 896.606 231.792 896.606 231.792 914.939ZM227.209 882.856 227.209 864.522 231.792 864.522 231.792 882.856ZM227.209 850.772 227.209 832.439 231.792 832.439 231.792 850.772ZM227.209 818.689 227.209 800.356 231.792 800.356 231.792 818.689ZM227.209 786.606 227.209 768.272 231.792 768.272 231.792 786.606ZM227.209 754.522 227.209 736.189 231.792 736.189 231.792 754.522ZM227.209 722.439 227.209 704.106 231.792 704.106 231.792 722.439ZM227.209 690.356 227.209 672.022 231.792 672.022 231.792 690.356ZM227.209 658.272 227.209 639.939 231.792 639.939 231.792 658.272ZM227.209 626.189 227.209 607.856 231.792 607.856 231.792 626.189ZM227.209 594.106 227.209 575.772 231.792 575.772 231.792 594.106ZM227.209 562.022 227.209 543.689 231.792 543.689 231.792 562.022ZM227.209 529.939 227.209 511.606 231.792 511.606 231.792 529.939ZM227.209 497.856 227.209 479.522 231.792 479.522 231.792 497.856ZM227.209 465.772 227.209 447.439 231.792 447.439 231.792 465.772ZM227.209 433.689 227.209 415.356 231.792 415.356 231.792 433.689ZM227.209 401.606 227.209 383.272 231.792 383.272 231.792 401.606ZM227.209 369.522 227.208 351.189 231.792 351.189 231.792 369.522ZM227.208 337.439 227.208 319.106 231.792 319.106 231.792 337.439ZM227.208 305.356 227.208 287.022 231.792 287.022 231.792 305.356ZM215.75 278.5C215.75 270.906 221.906 264.75 229.5 264.75 237.094 264.75 243.25 270.906 243.25 278.5 243.25 286.094 237.094 292.25 229.5 292.25 221.906 292.25 215.75 286.094 215.75 278.5Z" fill="#7F7F7F"/><path d="M231.792 1597.5 231.792 1615.83 227.208 1615.83 227.208 1597.5ZM231.792 1629.58 231.792 1647.92 227.208 1647.92 227.208 1629.58ZM231.792 1661.67 231.792 1680 227.209 1680 227.208 1661.67ZM231.792 1693.75 231.792 1712.08 227.209 1712.08 227.209 1693.75ZM231.792 1725.83 231.792 1744.17 227.209 1744.17 227.209 1725.83ZM231.792 1757.92 231.792 1776.25 227.209 1776.25 227.209 1757.92ZM231.792 1790 231.792 1808.33 227.209 1808.33 227.209 1790ZM231.792 1822.08 231.792 1840.42 227.209 1840.42 227.209 1822.08ZM231.792 1854.17 231.792 1872.5 227.209 1872.5 227.209 1854.17ZM231.792 1886.25 231.792 1904.58 227.209 1904.58 227.209 1886.25ZM231.792 1918.33 231.792 1936.67 227.209 1936.67 227.209 1918.33ZM231.792 1950.42 231.792 1968.75 227.209 1968.75 227.209 1950.42ZM231.792 1982.5 231.792 2000.83 227.209 2000.83 227.209 1982.5ZM231.792 2014.58 231.792 2032.92 227.209 2032.92 227.209 2014.58ZM231.792 2046.67 231.792 2065 227.209 2065 227.209 2046.67ZM231.792 2078.75 231.792 2097.08 227.209 2097.08 227.209 2078.75ZM231.792 2110.83 231.792 2129.17 227.209 2129.17 227.209 2110.83ZM231.792 2142.92 231.792 2161.25 227.209 2161.25 227.209 2142.92ZM231.792 2175 231.792 2193.33 227.209 2193.33 227.209 2175ZM231.792 2207.08 231.792 2225.42 227.209 2225.42 227.209 2207.08ZM231.792 2239.17 231.792 2257.5 227.209 2257.5 227.209 2239.17ZM231.792 2271.25 231.792 2289.58 227.209 2289.58 227.209 2271.25ZM243.251 2300.97C243.251 2308.56 237.094 2314.72 229.501 2314.72 221.907 2314.72 215.751 2308.56 215.751 2300.97 215.75 2293.38 221.907 2287.22 229.5 2287.22 237.094 2287.22 243.25 2293.38 243.251 2300.97Z" fill="#7F7F7F"/><text font-family="Times New Roman,Times New Roman_MSFontService,sans-serif" font-style="italic" font-weight="400" font-size="55" transform="matrix(1 0 0 1 2093.57 58)">ML Development Phases</text><path d="M2678.5 36.2083 2696.83 36.2083 2696.83 40.7917 2678.5 40.7917ZM2710.58 36.2083 2728.92 36.2083 2728.92 40.7917 2710.58 40.7917ZM2742.67 36.2083 2761 36.2084 2761 40.7917 2742.67 40.7917ZM2774.75 36.2084 2793.08 36.2084 2793.08 40.7917 2774.75 40.7917ZM2806.83 36.2084 2825.17 36.2084 2825.17 40.7917 2806.83 40.7917ZM2838.92 36.2084 2857.25 36.2084 2857.25 40.7917 2838.92 40.7917ZM2871 36.2084 2889.33 36.2084 2889.33 40.7917 2871 40.7917ZM2903.08 36.2084 2921.42 36.2084 2921.42 40.7917 2903.08 40.7917ZM2935.17 36.2084 2953.5 36.2084 2953.5 40.7917 2935.17 40.7917ZM2967.25 36.2084 2985.58 36.2084 2985.58 40.7917 2967.25 40.7917ZM2999.33 36.2084 3017.67 36.2084 3017.67 40.7917 2999.33 40.7917ZM3031.42 36.2084 3049.75 36.2084 3049.75 40.7918 3031.42 40.7917ZM3063.5 36.2084 3081.83 36.2084 3081.83 40.7918 3063.5 40.7918ZM3095.58 36.2084 3113.92 36.2084 3113.92 40.7918 3095.58 40.7918ZM3127.67 36.2084 3146 36.2084 3146 40.7918 3127.67 40.7918ZM3159.75 36.2084 3178.08 36.2084 3178.08 40.7918 3159.75 40.7918ZM3191.83 36.2085 3210.17 36.2085 3210.17 40.7918 3191.83 40.7918ZM3223.92 36.2085 3242.25 36.2085 3242.25 40.7918 3223.92 40.7918ZM3256 36.2085 3274.33 36.2085 3274.33 40.7918 3256 40.7918ZM3288.08 36.2085 3306.42 36.2085 3306.42 40.7918 3288.08 40.7918ZM3320.17 36.2085 3338.5 36.2085 3338.5 40.7918 3320.17 40.7918ZM3352.25 36.2085 3370.58 36.2085 3370.58 40.7918 3352.25 40.7918ZM3384.33 36.2085 3402.67 36.2085 3402.67 40.7918 3384.33 40.7918ZM3416.42 36.2085 3434.75 36.2085 3434.75 40.7918 3416.42 40.7918ZM3448.5 36.2085 3466.83 36.2085 3466.83 40.7918 3448.5 40.7918ZM3480.58 36.2085 3498.92 36.2085 3498.92 40.7919 3480.58 40.7919ZM3512.67 36.2085 3531 36.2085 3531 40.7919 3512.67 40.7919ZM3544.75 36.2085 3563.08 36.2085 3563.08 40.7919 3544.75 40.7919ZM3576.83 36.2085 3595.17 36.2085 3595.17 40.7919 3576.83 40.7919ZM3608.92 36.2085 3627.25 36.2085 3627.25 40.7919 3608.92 40.7919ZM3641 36.2086 3659.33 36.2086 3659.33 40.7919 3641 40.7919ZM3673.08 36.2086 3691.42 36.2086 3691.42 40.7919 3673.08 40.7919ZM3705.17 36.2086 3723.5 36.2086 3723.5 40.7919 3705.17 40.7919ZM3737.25 36.2086 3755.58 36.2086 3755.58 40.7919 3737.25 40.7919ZM3769.33 36.2086 3787.67 36.2086 3787.67 40.7919 3769.33 40.7919ZM3801.42 36.2086 3819.75 36.2086 3819.75 40.7919 3801.42 40.7919ZM3833.5 36.2086 3851.83 36.2086 3851.83 40.7919 3833.5 40.7919ZM3865.58 36.2086 3883.92 36.2086 3883.92 40.7919 3865.58 40.7919ZM3897.67 36.2086 3916 36.2086 3916 40.792 3897.67 40.7919ZM3929.75 36.2086 3948.08 36.2086 3948.08 40.792 3929.75 40.792ZM3961.83 36.2086 3980.17 36.2086 3980.17 40.792 3961.83 40.792ZM3993.92 36.2086 4012.25 36.2086 4012.25 40.792 3993.92 40.792ZM4026 36.2086 4044.33 36.2086 4044.33 40.792 4026 40.792ZM4058.08 36.2086 4076.42 36.2087 4076.42 40.792 4058.08 40.792ZM4090.17 36.2087 4108.5 36.2087 4108.5 40.792 4090.17 40.792ZM4122.25 36.2087 4140.58 36.2087 4140.58 40.792 4122.25 40.792ZM4154.33 36.2087 4172.67 36.2087 4172.67 40.792 4154.33 40.792ZM4186.42 36.2087 4204.75 36.2087 4204.75 40.792 4186.42 40.792ZM4218.5 36.2087 4236.83 36.2087 4236.83 40.792 4218.5 40.792ZM4248.43 24.7504C4256.02 24.7504 4262.18 30.9064 4262.18 38.5004 4262.18 46.0943 4256.02 52.2504 4248.43 52.2504 4240.84 52.2504 4234.68 46.0943 4234.68 38.5004 4234.68 30.9064 4240.84 24.7504 4248.43 24.7504Z" fill="#7F7F7F"/><path d="M5.24738e-07-2.29167 18.3333-2.29166 18.3333 2.29167-5.24738e-07 2.29167ZM32.0833-2.29166 50.4167-2.29166 50.4167 2.29168 32.0833 2.29167ZM64.1667-2.29165 82.5-2.29165 82.5 2.29169 64.1667 2.29168ZM96.25-2.29164 114.583-2.29164 114.583 2.29169 96.25 2.29169ZM128.333-2.29164 146.667-2.29163 146.667 2.2917 128.333 2.2917ZM160.417-2.29163 178.75-2.29163 178.75 2.29171 160.417 2.2917ZM192.5-2.29162 210.833-2.29162 210.833 2.29171 192.5 2.29171ZM224.583-2.29162 242.917-2.29161 242.917 2.29172 224.583 2.29172ZM256.667-2.29161 275-2.2916 275 2.29173 256.667 2.29173ZM288.75-2.2916 307.083-2.2916 307.083 2.29174 288.75 2.29173ZM320.833-2.29159 339.167-2.29159 339.167 2.29174 320.833 2.29174ZM352.917-2.29159 371.25-2.29158 371.25 2.29175 352.917 2.29175ZM385-2.29158 403.333-2.29157 403.333 2.29176 385 2.29175ZM417.083-2.29157 435.417-2.29157 435.417 2.29177 417.083 2.29176ZM449.167-2.29156 467.5-2.29156 467.5 2.29177 449.167 2.29177ZM481.25-2.29156 499.583-2.29155 499.583 2.29178 481.25 2.29178ZM513.333-2.29155 531.667-2.29154 531.667 2.29179 513.333 2.29178ZM545.417-2.29154 563.75-2.29154 563.75 2.2918 545.417 2.29179ZM577.5-2.29153 595.833-2.29153 595.833 2.2918 577.5 2.2918ZM609.583-2.29153 627.917-2.29152 627.917 2.29181 609.583 2.29181ZM641.667-2.29152 660-2.29152 660 2.29182 641.667 2.29181ZM673.75-2.29151 692.083-2.29151 692.083 2.29183 673.75 2.29182ZM705.833-2.29151 724.167-2.2915 724.167 2.29183 705.833 2.29183ZM737.917-2.2915 756.25-2.29149 756.25 2.29184 737.917 2.29184ZM770-2.29149 788.333-2.29149 788.333 2.29185 770 2.29184ZM802.083-2.29148 820.417-2.29148 820.417 2.29185 802.083 2.29185ZM834.167-2.29148 852.5-2.29147 852.5 2.29186 834.167 2.29186ZM866.25-2.29147 884.583-2.29146 884.583 2.29187 866.25 2.29187ZM898.333-2.29146 916.667-2.29146 916.667 2.29188 898.333 2.29187ZM930.417-2.29145 948.75-2.29145 948.75 2.29188 930.417 2.29188ZM962.5-2.29145 980.833-2.29144 980.833 2.29189 962.5 2.29189ZM994.583-2.29144 1012.92-2.29143 1012.92 2.2919 994.583 2.29189ZM1026.67-2.29143 1045-2.29143 1045 2.29191 1026.67 2.2919ZM1058.75-2.29142 1077.08-2.29142 1077.08 2.29191 1058.75 2.29191ZM1090.83-2.29142 1109.17-2.29141 1109.17 2.29192 1090.83 2.29192ZM1122.92-2.29141 1141.25-2.29141 1141.25 2.29193 1122.92 2.29192ZM1155-2.2914 1173.33-2.2914 1173.33 2.29194 1155 2.29193ZM1187.08-2.29139 1205.42-2.29139 1205.42 2.29194 1187.08 2.29194ZM1219.17-2.29139 1237.5-2.29138 1237.5 2.29195 1219.17 2.29195ZM1251.25-2.29138 1269.58-2.29138 1269.58 2.29196 1251.25 2.29195ZM1283.33-2.29137 1301.67-2.29137 1301.67 2.29196 1283.33 2.29196ZM1315.42-2.29137 1333.75-2.29136 1333.75 2.29197 1315.42 2.29197ZM1347.5-2.29136 1365.83-2.29135 1365.83 2.29198 1347.5 2.29198ZM1379.58-2.29135 1397.92-2.29135 1397.92 2.29199 1379.58 2.29198ZM1411.67-2.29134 1430-2.29134 1430 2.29199 1411.67 2.29199ZM1443.75-2.29134 1462.08-2.29133 1462.08 2.292 1443.75 2.292ZM1475.83-2.29133 1494.17-2.29132 1494.17 2.29201 1475.83 2.292ZM1507.92-2.29132 1526.25-2.29132 1526.25 2.29202 1507.92 2.29201ZM1540-2.29131 1558.33-2.29131 1558.33 2.29202 1540 2.29202ZM1572.08-2.29131 1576.11-2.29131 1576.11 2.29203 1572.08 2.29203ZM1576.11-13.7496C1583.7-13.7496 1589.86-7.59355 1589.86 0.000364041 1589.86 7.59428 1583.7 13.7504 1576.11 13.7504 1568.52 13.7504 1562.36 7.59427 1562.36 0.000357744 1562.36-7.59356 1568.52-13.7496 1576.11-13.7496Z" fill="#7F7F7F" transform="matrix(-1 0 0 1 2059.61 38.5)"/><text font-family="Times New Roman,Times New Roman_MSFontService,sans-serif" font-weight="700" font-size="55" transform="matrix(1 0 0 1 4323.28 905)">14</text><path d="M0 0 26.793 28.4434" stroke="#000000" stroke-width="2.29167" stroke-miterlimit="8" fill="none" fill-rule="evenodd" transform="matrix(-1 0 0 1 4319.79 856)"/><path d="M0 0 26.793 28.4434" stroke="#000000" stroke-width="2.29167" stroke-miterlimit="8" fill="none" fill-rule="evenodd" transform="matrix(-1 0 0 1 4311.79 851)"/><text font-family="Times New Roman,Times New Roman_MSFontService,sans-serif" font-weight="700" font-size="55" transform="matrix(1 0 0 1 4323.28 1422)">12</text><path d="M0 0 26.793 28.4434" stroke="#000000" stroke-width="2.29167" stroke-miterlimit="8" fill="none" fill-rule="evenodd" transform="matrix(-1 0 0 1 4319.79 1373)"/><path d="M0 0 26.793 28.4434" stroke="#000000" stroke-width="2.29167" stroke-miterlimit="8" fill="none" fill-rule="evenodd" transform="matrix(-1 0 0 1 4311.79 1368)"/><text font-family="Times New Roman,Times New Roman_MSFontService,sans-serif" font-weight="700" font-size="55" transform="matrix(1 0 0 1 4337.03 2261)">9</text><path d="M0 0 26.793 28.4434" stroke="#000000" stroke-width="2.29167" stroke-miterlimit="8" fill="none" fill-rule="evenodd" transform="matrix(-1 0 0 1 4319.79 2213)"/><path d="M0 0 26.793 28.4434" stroke="#000000" stroke-width="2.29167" stroke-miterlimit="8" fill="none" fill-rule="evenodd" transform="matrix(-1 0 0 1 4311.79 2207)"/><text font-family="Times New Roman,Times New Roman_MSFontService,sans-serif" font-weight="700" font-size="55" transform="matrix(1 0 0 1 4199.77 2374)">8</text><path d="M0 0 26.793 28.4434" stroke="#000000" stroke-width="2.29167" stroke-miterlimit="8" fill="none" fill-rule="evenodd" transform="matrix(-1 0 0 1 4189.79 2325)"/><path d="M0 0 26.793 28.4434" stroke="#000000" stroke-width="2.29167" stroke-miterlimit="8" fill="none" fill-rule="evenodd" transform="matrix(-1 0 0 1 4181.79 2320)"/><text font-family="Times New Roman,Times New Roman_MSFontService,sans-serif" font-weight="700" font-size="55" transform="matrix(1 0 0 1 3234.76 2374)">8</text><path d="M0 0 26.793 28.4434" stroke="#000000" stroke-width="2.29167" stroke-miterlimit="8" fill="none" fill-rule="evenodd" transform="matrix(-1 0 0 1 3224.79 2325)"/><path d="M0 0 26.793 28.4434" stroke="#000000" stroke-width="2.29167" stroke-miterlimit="8" fill="none" fill-rule="evenodd" transform="matrix(-1 0 0 1 3216.79 2320)"/><text font-family="Times New Roman,Times New Roman_MSFontService,sans-serif" font-weight="700" font-size="55" transform="matrix(1 0 0 1 2285.55 2374)">9</text><path d="M0 0 26.793 28.4434" stroke="#000000" stroke-width="2.29167" stroke-miterlimit="8" fill="none" fill-rule="evenodd" transform="matrix(-1 0 0 1 2275.79 2325)"/><path d="M0 0 26.793 28.4434" stroke="#000000" stroke-width="2.29167" stroke-miterlimit="8" fill="none" fill-rule="evenodd" transform="matrix(-1 0 0 1 2267.79 2320)"/><text font-family="Times New Roman,Times New Roman_MSFontService,sans-serif" font-weight="700" font-size="55" transform="matrix(1 0 0 1 1322.58 2374)">10</text><path d="M0 0 26.793 28.4434" stroke="#000000" stroke-width="2.29167" stroke-miterlimit="8" fill="none" fill-rule="evenodd" transform="matrix(-1 0 0 1 1326.79 2325)"/><path d="M0 0 26.793 28.4434" stroke="#000000" stroke-width="2.29167" stroke-miterlimit="8" fill="none" fill-rule="evenodd" transform="matrix(-1 0 0 1 1318.79 2320)"/><text font-family="Times New Roman,Times New Roman_MSFontService,sans-serif" font-style="italic" font-weight="400" font-size="46" transform="matrix(1 0 0 1 2095.36 2451)">B=Business Stakeholder, D=Domain Expert, M=ML Development, S=Software Development, AT=Auditing &amp; Testing</text></g></svg>